<svg xmlns="http://www.w3.org/2000/svg" viewBox="0 0 92.46 56.27"><defs><style>.cls-1,.cls-2,.cls-3{fill:#dc0e18;}.cls-2{stroke:#1d1d1b;stroke-miterlimit:10;stroke-width:0.1px;}.cls-3{font-size:10px;font-family:SportsFOXSportsUScore, Sports FOX Sports UScore;}</style></defs><g id="Capa_2" data-name="Capa 2"><path class="cls-1" d="M50.35,24.31s-15.23.37-20.19.54c0,0,16.14.4,17,.51A14.91,14.91,0,0,1,50.35,24.31Z" transform="translate(-3.77 -21.86)"/><path class="cls-1" d="M36.44,28.11s-9.32.35-12.7.43c0,0,8.76.13,11.2.21A6.74,6.74,0,0,1,36.44,28.11Z" transform="translate(-3.77 -21.86)"/><path class="cls-1" d="M31,31.39s-9.07.67-12.45.76c0,0,8.76.12,11.2.21A5.61,5.61,0,0,1,31,31.39Z" transform="translate(-3.77 -21.86)"/><path class="cls-1" d="M50.81,33.63s-33.09.46-43.68.57c0,0,38.55.54,41.2.63C48.33,34.83,50.2,33.85,50.81,33.63Z" transform="translate(-3.77 -21.86)"/><path class="cls-1" d="M47.59,36.51s-22.16.43-25.92.6c0,0,22.5.6,24.26.62C45.93,37.73,46.93,36.93,47.59,36.51Z" transform="translate(-3.77 -21.86)"/><path class="cls-1" d="M42.2,39.42s-9.78.22-12.77.31c0,0,9.21.27,11.65.29A4.07,4.07,0,0,1,42.2,39.42Z" transform="translate(-3.77 -21.86)"/><path class="cls-1" d="M41.4,40.63s-9.95.72-12.94.8c0,0,9.21.27,11.65.29A4,4,0,0,1,41.4,40.63Z" transform="translate(-3.77 -21.86)"/><path class="cls-1" d="M41.1,42.31s-12.7.21-18.09.47c0,0,17.45.39,18.09.56A3.53,3.53,0,0,1,41.1,42.31Z" transform="translate(-3.77 -21.86)"/><path class="cls-1" d="M41.4,44.71S8.27,45,3.77,45.38c0,0,37.42.26,38.2.85C42,46.23,41.56,45.91,41.4,44.71Z" transform="translate(-3.77 -21.86)"/><path class="cls-1" d="M43.85,49.59A337.75,337.75,0,0,0,7.7,50s34.21-.49,36.74,1.19A2.86,2.86,0,0,0,43.85,49.59Z" transform="translate(-3.77 -21.86)"/><path class="cls-1" d="M42,54.38s-6.56-2.16-33.36-1.25c0,0,28.18.11,32.79,2.85a4.35,4.35,0,0,0,1.14-1.4A2.91,2.91,0,0,0,42,54.38Z" transform="translate(-3.77 -21.86)"/><path class="cls-1" d="M40.26,57.24s-7.33-2.91-26.49-1.72c0,0,22.41.56,25.11,2.78C38.88,58.3,39.12,58.49,40.26,57.24Z" transform="translate(-3.77 -21.86)"/><path class="cls-1" d="M38.11,58.86s-17.75-1.75-23.22-.81c0,0,19.24.38,22.36,1.54A3.61,3.61,0,0,1,38.11,58.86Z" transform="translate(-3.77 -21.86)"/><path class="cls-2" d="M28.74,61.81" transform="translate(-3.77 -21.86)"/><path class="cls-1" d="M42.41,39.79c.64-.8,2.42-.66,3.2-.3A5.65,5.65,0,0,1,48,42.57c1.49,3.37,3.66,9,1.3,12.47a21.16,21.16,0,0,1-7.83,6.71c-3.13,1.64-7.69,3.74-11.32,3.32,1.86-1.76,4.54-3,6.6-4.54,2.89-2.22,6.17-4.86,7.7-8.26,0,0,.91-1.31-.91-4.27C43.55,48,39.67,43.21,42.41,39.79Z" transform="translate(-3.77 -21.86)"/><path class="cls-1" d="M51.3,41.84c.31-1,2.66-1.07,3.38-.92a18.29,18.29,0,0,1,6.59,3.24c1.61,1.1,3.21,2.2,4.75,3.4,1.3,1,3,2.11,3.67,3.68,2.12,5-8.8,8-12,8.78a61.17,61.17,0,0,1-9.62,1.43c3.92-2.06,7.93-4,11.68-6.32.77-.48,4.6-2.19,2.41-3.29-2.66-1.34-5.47-1.64-7.94-3.52C52.27,46.8,50.51,44.47,51.3,41.84Z" transform="translate(-3.77 -21.86)"/><path class="cls-1" d="M29.85,33.33c2.36-3.12,6-4.95,9.8-6.1a37.05,37.05,0,0,1,9.76-1.5,51.5,51.5,0,0,1,6.45.22c2.07.19,4,.43,5.6,1.95a4.29,4.29,0,0,1,1,5.27s-1.37,2.06-4.79,0a28.7,28.7,0,0,0-17.85-2.05c-10.18,2.05-11.28,4.32-11.28,4.33A12.23,12.23,0,0,1,29.85,33.33Z" transform="translate(-3.77 -21.86)"/><path class="cls-1" d="M77.15,40.8A20.19,20.19,0,0,0,76.49,44a2.56,2.56,0,0,0,1.36,2.66c1.94.85,4.59-.23,6.39-.94a73.05,73.05,0,0,0,12-6.49S87.9,53,77.76,51.14c0,0-12.09-.63-5.25-13.86.55-1.06,3-1.56,3.84-.78C77.65,37.65,77.51,39.22,77.15,40.8Z" transform="translate(-3.77 -21.86)"/><circle class="cls-1" cx="70.75" cy="6.61" r="6.61"/><text class="cls-3" transform="translate(18.89 54.53)">ANAME</text></g></svg>