<svg xmlns="http://www.w3.org/2000/svg" viewBox="0 0 226.91 44.15"><defs><style>.cls-1{fill:#f9f9f9;}.cls-2{fill:#f3e32d;}.cls-3{fill:#273482;}.cls-4{fill:#b22525;}.cls-5{fill:none;}</style></defs><g id="Capa_2" data-name="Capa 2"><rect class="cls-1" x="0.07" y="0.08" width="226.84" height="43.87"/></g><g id="Capa_1" data-name="Capa 1"><circle class="cls-2" cx="52.7" cy="16.45" r="4.04"/><path class="cls-3" d="M0,44.16H6.83S.51,28.14,12,17.29c0,0,14.82-15.55,35.7-17.29H38.12S20.71,2.23,0,14.75V44.16Z" transform="translate(-0.01 0)"/><path class="cls-2" d="M0,14.08V0H35.83S20.09,1.44,0,14.08Z" transform="translate(-0.01 0)"/><path class="cls-4" d="M20.76,23.7a18.84,18.84,0,0,0,1.31,20.46H7.57C5.31,39.23,6,31.33,6,31.33,7.51,17.29,24.71,9,24.71,9,35.54,2.5,50.45,0,50.45,0H61.7C31.23,3.62,22.77,18.64,20.76,23.7Z" transform="translate(-0.01 0)"/><path class="cls-2" d="M45,15.84l-.09,0Z" transform="translate(-0.01 0)"/><path class="cls-3" d="M46.21,17.66a2,2,0,0,1-2,1.95c-.88.25-3.8-1.48-4.55-1.93l-.35-.16c-6.54-1.7-13.21,1.17-13.21,1.17a16.87,16.87,0,0,1,11.68-4.12,22.84,22.84,0,0,1,5.7.81c.65.18,1.12.34,1.35.42h0l.09,0,0,0h0a2,2,0,0,1,1.17,1.79Z" transform="translate(-0.01 0)"/><path class="cls-5" d="M45,15.87Z" transform="translate(-0.01 0)"/><path class="cls-4" d="M38.46,29.23a8.83,8.83,0,0,1-.27,2.14A5.54,5.54,0,0,1,38,32a8.31,8.31,0,0,1-3.08,3.12,22.25,22.25,0,0,1-5.84,2.87,13,13,0,0,1-3.32.66c.6-.32,1.15-.63,1.66-.94,5.8-3.43,6.67-6,6.67-6C35.57,29.15,33,26.14,33,26.14c-1.65-2.75.88-3.67.88-3.67a2.7,2.7,0,0,1,1.7.24c1.57.77,2.29,2.95,2.56,4h0A8.94,8.94,0,0,1,38.46,29.23Z" transform="translate(-0.01 0)"/><path class="cls-4" d="M38.19,31.37A2.41,2.41,0,0,1,38,32,5.54,5.54,0,0,0,38.19,31.37Z" transform="translate(-0.01 0)"/><path class="cls-4" d="M38.42,24.79s.78-1.84,3.44-.4l7,4.61s1.83,1.66.51,3.26c0,0-2.92,3.7-11.42,3.73,0,0,10.05-5.05,7.61-5.3,0,0-8.47-2.32-7.15-5.9Z" transform="translate(-0.01 0)"/><path class="cls-3" d="M126.33,35.29h-9.77l-6.73-11.37c-.75-1.24-1.2-1.94-2.5-3.91V35.29h-7.06V8.68h8.13l6.22,10.15c1.88,2.73,2.71,4,3.69,5.34V8.68h8Z" transform="translate(-0.01 0)"/><path class="cls-3" d="M150.19,35.47l-1.09-4.15h-9.27l-2,4h-8.39L139.58,8.68H149l10.19,26.61-9,.18Zm-9.45-10h6.81L144.15,17l-3.41,8.47Z" transform="translate(-0.01 0)"/><path class="cls-3" d="M87.3,35.47l-1.09-4.15H76.94l-2,4h-8.4L76.69,8.68h9.44L96.32,35.29Zm-9.45-10h6.82L81.26,17l-3.41,8.47Z" transform="translate(-0.01 0)"/><path class="cls-3" d="M193.58,8.68V35.29h-6.67V16.74l-5.55,18.55h-6.27l-5.93-18.55V35.29h-6V8.68h10.4L178,25.34,181,8.68Z" transform="translate(-0.01 0)"/><path class="cls-3" d="M222.39,29.09v6.2H199.45V8.68h22.94v6.66H209.12v3.77h12.39v5.75H209.12V29.1h13.27Z" transform="translate(-0.01 0)"/><path class="cls-3" d="M64.53,24.53c0,2.38-3.55,4.19-5.47,5a6.61,6.61,0,0,1-3.07.76,6.52,6.52,0,0,1-2.22-.39,6.32,6.32,0,0,1-1.4-.7h0c-2.44-1.81-1.51-5.35-1.51-5.35.59-1.81,1.79-2,2.39-2h0a1.31,1.31,0,0,1,.81,2.34,4.79,4.79,0,0,0-.08,2c.84,2.21,3.23,1.35,3.23,1.35a21.22,21.22,0,0,0,7.28-3Z" transform="translate(-0.01 0)"/></g></svg>