<svg id="Capa_2" data-name="Capa 2" xmlns="http://www.w3.org/2000/svg" viewBox="0 0 594.12 508.84"><defs><style>.cls-1{fill:#ffed00;}.cls-2{fill:#27348b;}.cls-3{fill:#be1622;}.cls-4{fill:none;}</style></defs><circle class="cls-1" cx="485.83" cy="152.74" r="37.19" transform="translate(256.74 606.58) rotate(-80.78)"/><path class="cls-2" d="M.5,407.87H63.27S5.07,260.35,111.21,160.48c0,0,136.4-143.24,328.71-159.21H351.46S191.1,21.8.5,137.08V407.87Z" transform="translate(-0.5 -1.26)"/><path class="cls-1" d="M.5,130.86V1.26H330.35S185.4,14.49.5,130.86Z" transform="translate(-0.5 -1.26)"/><path class="cls-3" d="M191.53,219.5a173.65,173.65,0,0,0,12.14,188.37H70.11C49.28,362.5,55.85,289.74,55.85,289.74,69.55,160.48,227.91,84.29,227.91,84.29,327.67,24.23,465,1.26,465,1.26H568.6C288,34.56,210.06,172.85,191.53,219.5Z" transform="translate(-0.5 -1.26)"/><path class="cls-1" d="M414.61,147.13l-.82-.31A8.11,8.11,0,0,1,414.61,147.13Z" transform="translate(-0.5 -1.26)"/><path class="cls-2" d="M425.89,163.82a18,18,0,0,1-18,18c-8.1,2.26-35-13.62-41.89-17.8a26.66,26.66,0,0,1-3.24-1.41c-60.21-15.65-121.68,10.7-121.68,10.7,34.77-30.59,74.74-38.39,107.62-37.95a212.09,212.09,0,0,1,52.46,7.48c6,1.65,10.32,3.14,12.47,3.92l.17.06.82.31.29.11.16.07.09,0a18,18,0,0,1,10.74,16.47Z" transform="translate(-0.5 -1.26)"/><path class="cls-4" d="M415.16,147.34h0l-.09,0Z" transform="translate(-0.5 -1.26)"/><path class="cls-3" d="M354.54,270.38a80,80,0,0,1-2.46,19.76c-.45,1.81-1,3.59-1.54,5.35-6.56,16-28.35,28.68-28.35,28.68a206.29,206.29,0,0,1-53.84,26.46c-18.73,5.86-30.56,6.05-30.56,6.05q8.24-4.38,15.34-8.61c53.41-31.66,61.41-55.68,61.41-55.68C328,269.64,303.86,242,303.86,242c-15.23-25.32,8.11-33.82,8.11-33.82a25.4,25.4,0,0,1,15.64,2.19c14.41,7.1,21.1,27.18,23.57,37l0,.11A80.29,80.29,0,0,1,354.54,270.38Z" transform="translate(-0.5 -1.26)"/><path class="cls-3" d="M352.08,290.14a24,24,0,0,1-1.54,5.35C351.11,293.73,351.64,292,352.08,290.14Z" transform="translate(-0.5 -1.26)"/><path class="cls-3" d="M354.23,229.49s7.12-16.88,31.65-3.69l64.62,42.46s16.88,15.3,4.75,30.07c0,0-26.9,34-105.23,34.29,0,0,92.57-46.42,70.15-48.79,0,0-78.07-21.36-65.93-54.33Z" transform="translate(-0.5 -1.26)"/><path class="cls-2" d="M236.53,509.45H201.38l-24.21-40.89c-2.71-4.47-4.34-7-9-14.09v55H142.77V413.71H172l22.41,36.53c6.75,9.82,9.75,14.33,13.25,19.23V413.71h28.88Z" transform="translate(-0.5 -1.26)"/><path class="cls-2" d="M322.39,510.1l-3.92-14.94-33.37,0L278,509.45h-30.2l36.45-95.74h34l36.66,95.74-32.44.65Zm-34-36H312.9l-12.26-30.48L288.38,474.1Z" transform="translate(-0.5 -1.26)"/><path class="cls-2" d="M96.11,510.1l-3.92-14.94-33.37,0-7.14,14.25H21.47l36.46-95.74h34l36.66,95.74Zm-34-36H86.62L74.35,443.62,62.09,474.1Z" transform="translate(-0.5 -1.26)"/><path class="cls-2" d="M478.51,413.71v95.74h-24V442.73l-20,66.72H412l-21.35-66.72v66.72H369.17V413.71H406.6l16,60,10.47-60h45.45Z" transform="translate(-0.5 -1.26)"/><path class="cls-2" d="M582.16,487.17v22.29H499.62V413.72h82.54v24H534.44v13.54H579v20.71H534.44v15.24h47.72Z" transform="translate(-0.5 -1.26)"/><path class="cls-2" d="M594.63,227.12c-.44,21.95-32.71,38.58-50.41,46.07a60.67,60.67,0,0,1-61.61-3.05.21.21,0,0,1-.08-.06c-22.44-16.72-13.91-49.32-13.91-49.32,5.5-16.67,16.52-18.56,22-18.37a3.85,3.85,0,0,1,.48,0,12,12,0,0,1,7.45,21.49c-2.54,8.46-.68,18.29-.68,18.29,7.72,20.37,29.68,12.46,29.68,12.46C544,251,561,245.16,573.54,239a207.16,207.16,0,0,0,21.09-11.86Z" transform="translate(-0.5 -1.26)"/></svg>