<svg xmlns="http://www.w3.org/2000/svg" viewBox="0 0 164.01 32.88"><defs><style>.cls-1{fill:#b51917;}.cls-2{fill:#dc0c15;}.cls-3{fill:#f8f9fd;}.cls-4{fill:none;stroke:#1d1d1b;stroke-miterlimit:10;stroke-width:0.1px;}</style></defs><g id="Capa_5" data-name="Capa 5"><polygon class="cls-1" points="140.12 32.88 164.01 0 4.38 0 4.38 32.88 140.12 32.88"/><polygon class="cls-2" points="136.74 32.88 160.63 0 0 0 0 32.88 136.74 32.88"/></g><g id="Capa_2" data-name="Capa 2"><path class="cls-3" d="M31.16,3.6S21,3.85,17.66,4c0,0,10.8.26,11.37.34A10.53,10.53,0,0,1,31.16,3.6Z"/><path class="cls-3" d="M21.86,6.15s-6.24.23-8.5.29c0,0,5.86.08,7.5.14A4.43,4.43,0,0,1,21.86,6.15Z"/><path class="cls-3" d="M18.21,8.34s-6.08.45-8.34.51c0,0,5.87.08,7.5.14A4.06,4.06,0,0,1,18.21,8.34Z"/><path class="cls-3" d="M31.47,9.84s-22.14.31-29.22.38c0,0,25.79.36,27.56.42C29.81,10.64,31.06,10,31.47,9.84Z"/><path class="cls-3" d="M29.31,11.77s-14.82.28-17.33.4c0,0,15.05.4,16.23.42C28.21,12.59,28.88,12.05,29.31,11.77Z"/><path class="cls-3" d="M25.71,13.71l-8.55.21s6.17.18,7.8.2A2.7,2.7,0,0,1,25.71,13.71Z"/><path class="cls-3" d="M25.17,14.53s-6.65.47-8.65.53c0,0,6.16.18,7.79.2A2.73,2.73,0,0,1,25.17,14.53Z"/><path class="cls-3" d="M25,15.65s-8.49.14-12.1.31c0,0,11.68.26,12.1.37A2.76,2.76,0,0,1,25,15.65Z"/><path class="cls-3" d="M25.17,17.25S3,17.43,0,17.7c0,0,25,.18,25.56.57A1.6,1.6,0,0,1,25.17,17.25Z"/><path class="cls-3" d="M26.82,20.52a226.33,226.33,0,0,0-24.19.25s22.89-.33,24.58.8A1.9,1.9,0,0,0,26.82,20.52Z"/><path class="cls-3" d="M25.56,23.73s-4.39-1.45-22.32-.84c0,0,18.85.07,21.93,1.9a3,3,0,0,0,.77-.93A1.36,1.36,0,0,0,25.56,23.73Z"/><path class="cls-3" d="M24.41,25.63s-4.9-1.94-17.72-1.14c0,0,15,.37,16.8,1.86C23.49,26.35,23.65,26.47,24.41,25.63Z"/><path class="cls-3" d="M23,26.72S11.1,25.55,7.44,26.18c0,0,12.87.25,15,1A2.23,2.23,0,0,1,23,26.72Z"/><path class="cls-4" d="M16.71,28.69"/><path class="cls-3" d="M25.85,14c.43-.53,1.62-.44,2.14-.2a3.75,3.75,0,0,1,1.6,2.06c1,2.26,2.46,6,.88,8.35a14.19,14.19,0,0,1-5.24,4.48c-2.09,1.1-5.15,2.51-7.57,2.23,1.24-1.18,3-2,4.41-3.05,1.93-1.48,4.13-3.24,5.15-5.52,0,0,.61-.87-.61-2.86C26.61,19.45,24,16.25,25.85,14Z"/><path class="cls-3" d="M31.8,15.33c.2-.68,1.78-.71,2.26-.62a12.31,12.31,0,0,1,4.41,2.18c1.07.73,2.15,1.47,3.17,2.27a7.24,7.24,0,0,1,2.46,2.46c1.42,3.35-5.89,5.37-8,5.87a41,41,0,0,1-6.44,1c2.62-1.39,5.31-2.65,7.82-4.23.51-.33,3.08-1.47,1.61-2.21-1.78-.89-3.66-1.09-5.31-2.35C32.45,18.65,31.27,17.09,31.8,15.33Z"/><path class="cls-3" d="M17.45,9.64A12.61,12.61,0,0,1,24,5.56a25.4,25.4,0,0,1,6.53-1,36.69,36.69,0,0,1,4.32.15A5.7,5.7,0,0,1,38.6,6a2.88,2.88,0,0,1,.68,3.53s-.92,1.37-3.21,0A19.17,19.17,0,0,0,24.13,8.16c-6.81,1.37-7.54,2.89-7.55,2.9A8.84,8.84,0,0,1,17.45,9.64Z"/><path class="cls-3" d="M49.09,14.64a13.38,13.38,0,0,0-.44,2.12,1.71,1.71,0,0,0,.91,1.78c1.3.56,3.07-.16,4.27-.63a49,49,0,0,0,8-4.34s-5.58,9.23-12.36,8c0,0-8.09-.43-3.51-9.28a2.07,2.07,0,0,1,2.57-.52C49.42,12.53,49.33,13.58,49.09,14.64Z"/><circle class="cls-3" cx="47.33" cy="6.39" r="4.42"/></g><g id="Capa_3" data-name="Capa 3"><path class="cls-3" d="M74.64,8.3h5l4.1,10.3H80.12l-.71-1.93H74.55l-.7,1.93H70.53Zm.75,6.11h3.19L77,10.07Z"/><path class="cls-3" d="M84.76,8.3h4.39l4.09,6.82V8.3h3V18.6H91.82l-4.07-6.88V18.6h-3Z"/><path class="cls-3" d="M101.32,8.3h5l4.11,10.3H106.8l-.71-1.93h-4.87l-.69,1.93H97.21Zm.74,6.11h3.2l-1.58-4.34Z"/><path class="cls-3" d="M111.44,8.3h5.22l2.66,7.7L122,8.3h5.2V18.6H124v-8l-2.82,8h-4l-2.73-8v8h-2.94Z"/><path class="cls-3" d="M129.15,8.3H139v2.18h-6.45v1.81h5.82v2.17h-5.82v2H139V18.6h-9.84Z"/><path class="cls-3" d="M110.54,26.12V19.33h4v.8h-3.28v2.08h3.08V23h-3.08v2.31h3.41v.8Z"/><path class="cls-3" d="M118.26,24.32l.67.11a2.25,2.25,0,0,1-.58,1.34,1.54,1.54,0,0,1-1.12.47,1.57,1.57,0,0,1-1.3-.66,3,3,0,0,1-.52-1.92,3,3,0,0,1,.52-1.92,1.63,1.63,0,0,1,1.33-.65,1.52,1.52,0,0,1,1,.39,1.9,1.9,0,0,1,.55,1.17l-.66.12a1.46,1.46,0,0,0-.34-.74.76.76,0,0,0-.58-.25,1,1,0,0,0-.84.45,2.4,2.4,0,0,0-.33,1.42,2.57,2.57,0,0,0,.32,1.45,1,1,0,0,0,.81.45.89.89,0,0,0,.67-.3A1.67,1.67,0,0,0,118.26,24.32Z"/><path class="cls-3" d="M122.15,26.12V25.4a1.74,1.74,0,0,1-.56.63,1.27,1.27,0,0,1-.72.21,1.34,1.34,0,0,1-.82-.26,1.28,1.28,0,0,1-.45-.65,4.31,4.31,0,0,1-.11-1.08v-3h.68v2.72a4.31,4.31,0,0,0,.08,1,.74.74,0,0,0,.28.41.72.72,0,0,0,.47.16,1,1,0,0,0,.81-.4,2.31,2.31,0,0,0,.26-1.28V21.21h.69v4.91Z"/><path class="cls-3" d="M126.46,25.52a2.48,2.48,0,0,1-.71.54,1.74,1.74,0,0,1-.77.18,1.37,1.37,0,0,1-1-.38,1.42,1.42,0,0,1-.37-1,1.66,1.66,0,0,1,.17-.75,1.36,1.36,0,0,1,.49-.52,2.59,2.59,0,0,1,.92-.27,5.29,5.29,0,0,0,1.23-.29v-.21a1.06,1.06,0,0,0-.18-.71,1,1,0,0,0-.78-.3,1.12,1.12,0,0,0-.72.2,1.31,1.31,0,0,0-.34.74l-.67-.11a1.78,1.78,0,0,1,.58-1.15,1.87,1.87,0,0,1,1.25-.37,1.83,1.83,0,0,1,1,.24,1,1,0,0,1,.45.59,4.38,4.38,0,0,1,.1,1v1.11a14.39,14.39,0,0,0,0,1.47,2.36,2.36,0,0,0,.17.59h-.71A2,2,0,0,1,126.46,25.52Zm0-1.86a4.76,4.76,0,0,1-1.12.31,2.13,2.13,0,0,0-.6.17.59.59,0,0,0-.27.27.84.84,0,0,0-.09.4.76.76,0,0,0,.21.56.85.85,0,0,0,.61.21,1.18,1.18,0,0,0,.66-.19,1.15,1.15,0,0,0,.45-.5,2.28,2.28,0,0,0,.15-.93Z"/><path class="cls-3" d="M130.78,26.12V25.5a1.53,1.53,0,0,1-.48.55,1.22,1.22,0,0,1-.63.19,1.54,1.54,0,0,1-1.24-.68,3.08,3.08,0,0,1-.52-1.89,4,4,0,0,1,.23-1.43,1.86,1.86,0,0,1,.62-.86,1.42,1.42,0,0,1,.86-.29,1.21,1.21,0,0,1,.63.18,1.41,1.41,0,0,1,.47.5V19.33h.69v6.79Zm-2.17-2.45a2.46,2.46,0,0,0,.33,1.42.94.94,0,0,0,.78.46.92.92,0,0,0,.75-.44,2.36,2.36,0,0,0,.32-1.35,2.8,2.8,0,0,0-.32-1.51,1,1,0,0,0-.81-.47.89.89,0,0,0-.74.46A2.64,2.64,0,0,0,128.61,23.67Z"/><path class="cls-3" d="M132.23,23.67a3,3,0,0,1,.53-1.93,1.74,1.74,0,0,1,2.71,0,2.86,2.86,0,0,1,.54,1.87,3.1,3.1,0,0,1-.53,2,1.7,1.7,0,0,1-1.36.65,1.68,1.68,0,0,1-1.35-.66A2.92,2.92,0,0,1,132.23,23.67Zm.7,0a2.3,2.3,0,0,0,.35,1.42,1,1,0,0,0,.86.47,1,1,0,0,0,.83-.47,2.48,2.48,0,0,0,.34-1.42,2.36,2.36,0,0,0-.35-1.41,1,1,0,0,0-1.69,0A2.36,2.36,0,0,0,132.93,23.66Z"/><path class="cls-3" d="M136.82,26.12V21.21h.61V22a2.15,2.15,0,0,1,.44-.69.66.66,0,0,1,.44-.17,1.17,1.17,0,0,1,.7.27l-.23.78a.88.88,0,0,0-.5-.18.6.6,0,0,0-.4.15.8.8,0,0,0-.25.43,3.63,3.63,0,0,0-.13,1v2.57Z"/></g></svg>