<?xml version="1.0" encoding="UTF-8"?>
<svg version="1.1" xmlns="http://www.w3.org/2000/svg" width="709" height="138">
<path d="M0 0 C209.55 0 419.1 0 635 0 C633.52605667 4.42182998 632.14614984 7.87514843 629.98046875 11.90234375 C629.3769458 13.02809814 628.77342285 14.15385254 628.15161133 15.3137207 C627.49713514 16.52177046 626.84242567 17.72969386 626.1875 18.9375 C625.50985793 20.19547486 624.8323697 21.45353261 624.1550293 22.71166992 C619.4560573 31.41699991 614.61319406 40.03515692 609.70581055 48.62475586 C605.44890177 56.11203386 601.46162163 63.71998278 597.51879883 71.3762207 C593.4953367 79.14910315 589.2152148 86.75507883 584.86865234 94.35083008 C580.4496812 102.11089363 576.28180671 109.98474082 572.22070312 117.9375 C571.33345991 119.66642188 570.41885564 121.38168075 569.47264248 123.07904696 C567.91404374 125.95983063 567.91404374 125.95983063 567.06738466 129.10107732 C565.56404115 133.08770247 564.24506243 135.19394763 561 138 C553.10241741 140.44875785 544.21165082 139.56285996 536.05116272 139.4430542 C533.42585788 139.44828554 530.80055912 139.45878966 528.17529386 139.47412419 C522.4603629 139.49899547 516.74693165 139.47931419 511.03217506 139.4304657 C502.53488251 139.35803451 494.03853532 139.35443632 485.54099035 139.36496956 C471.24719997 139.38073664 456.95407523 139.34064 442.66047859 139.26876068 C428.50704723 139.19776857 414.35389307 139.151572 400.20028496 139.13852692 C398.88051142 139.1372896 398.88051142 139.1372896 397.53407578 139.13602729 C393.06581022 139.13196732 388.59754442 139.12835071 384.12927835 139.12490478 C352.47621492 139.09969631 320.82351369 139.01883862 289.1706543 138.90527344 C258.41937182 138.79507026 227.66818842 138.71006217 196.91674805 138.65917969 C195.96894323 138.65760137 195.02113841 138.65602306 194.04461223 138.65439692 C184.52641135 138.63857475 175.0082097 138.62326497 165.49000739 138.60833061 C146.1001394 138.57789562 126.71027788 138.5440406 107.32041931 138.50811768 C106.42889488 138.5064702 105.53737044 138.50482272 104.61883011 138.50312531 C45.07906919 138.39270763 -14.46048999 138.20256406 -74 138 C-72.68643898 133.94929883 -71.23858465 130.31198105 -69.19921875 126.5703125 C-68.64089355 125.5400293 -68.08256836 124.50974609 -67.50732422 123.44824219 C-66.90678223 122.35157227 -66.30624023 121.25490234 -65.6875 120.125 C-64.73646204 118.37426466 -63.78542666 116.62352791 -62.83459473 114.87268066 C-61.85964703 113.07925231 -60.88249721 111.2870398 -59.90478516 109.49511719 C-57.5866041 105.24145403 -55.28288655 100.98007536 -52.97973633 96.71826172 C-47.84944826 87.22882884 -42.68928958 77.75579107 -37.51904297 68.28808594 C-33.83174909 61.53308941 -30.16277221 54.76831983 -26.5 48 C-22.23462692 40.1220325 -17.96809495 32.24470919 -13.6875 24.375 C-13.23246094 23.53582031 -12.77742188 22.69664063 -12.30859375 21.83203125 C-8.30974579 14.48931906 -4.15136397 7.26488694 0 0 Z " fill="#FE0000" transform="translate(74,0)"/>
<path d="M0 0 C0.8559375 -0.01224609 1.711875 -0.02449219 2.59375 -0.03710938 C16.60960208 -0.06896358 30.10246981 4.525292 40.4140625 14.22265625 C50.75180007 25.19924277 53.74663196 36.6987143 53.49609375 51.48046875 C52.45932247 67.09786473 44.46139444 79.91340535 33.0234375 90.1875 C17.44395032 102.95937642 -0.20884421 105.50872406 -19.75 104.1875 C-32.34672771 102.41554494 -43.98253975 95.13731507 -51.75 85.1875 C-59.88368006 71.98582458 -61.91152901 58.29789398 -59.38378906 42.96630859 C-57.27293442 34.18278352 -52.50857262 27.00422426 -46.75 20.1875 C-46.21761719 19.54296875 -45.68523437 18.8984375 -45.13671875 18.234375 C-37.16912256 9.4561797 -26.06798698 4.13350543 -14.75 1.1875 C-13.64398438 0.89746094 -13.64398438 0.89746094 -12.515625 0.6015625 C-8.34605334 -0.0226954 -4.21018522 0.00311404 0 0 Z " fill="#FFFCFC" transform="translate(518.75,18.8125)"/>
<path d="M0 0 C0.8559375 -0.01224609 1.711875 -0.02449219 2.59375 -0.03710938 C16.60960208 -0.06896358 30.10246981 4.525292 40.4140625 14.22265625 C50.75180007 25.19924277 53.74663196 36.6987143 53.49609375 51.48046875 C52.45932247 67.09786473 44.46139444 79.91340535 33.0234375 90.1875 C17.44395032 102.95937642 -0.20884421 105.50872406 -19.75 104.1875 C-32.34672771 102.41554494 -43.98253975 95.13731507 -51.75 85.1875 C-59.88368006 71.98582458 -61.91152901 58.29789398 -59.38378906 42.96630859 C-57.27293442 34.18278352 -52.50857262 27.00422426 -46.75 20.1875 C-46.21761719 19.54296875 -45.68523437 18.8984375 -45.13671875 18.234375 C-37.16912256 9.4561797 -26.06798698 4.13350543 -14.75 1.1875 C-13.64398438 0.89746094 -13.64398438 0.89746094 -12.515625 0.6015625 C-8.34605334 -0.0226954 -4.21018522 0.00311404 0 0 Z " fill="#FFFCFC" transform="translate(292.75,18.8125)"/>
<path d="M0 0 C0.99 0.35191406 1.98 0.70382813 3 1.06640625 C9.94805832 3.69798334 15.41967689 7.11017141 21 12 C19.69897614 15.80422835 18.22393571 18.13130512 15.33984375 20.91796875 C14.62892578 21.61470703 13.91800781 22.31144531 13.18554688 23.02929688 C12.07276367 24.09760742 12.07276367 24.09760742 10.9375 25.1875 C9.46537882 26.61636092 7.99522445 28.0472519 6.52734375 29.48046875 C5.54882446 30.42249146 5.54882446 30.42249146 4.55053711 31.38354492 C2.90896902 32.93504728 2.90896902 32.93504728 2 35 C-1.08054668 34.38525676 -3.21337705 33.37186471 -5.8125 31.625 C-13.82770849 26.56044518 -20.48322733 24.67053234 -30 26 C-37.2871013 28.444466 -41.96485298 32.24937146 -45.9765625 38.75390625 C-48.93264284 45.24148714 -49.40170744 53.91571452 -47.09375 60.640625 C-43.98056108 66.66743944 -40.48924759 69.83691747 -34 72 C-27.40560575 72.51183926 -21.36054983 71.72072846 -15 70 C-14.94392578 69.03513672 -14.94392578 69.03513672 -14.88671875 68.05078125 C-14.31965729 60.25646585 -12.80759277 53.83290202 -11 46 C-1.1 46 8.8 46 19 46 C18.34 49.63 17.68 53.26 17 57 C16.66690464 59.522429 16.34994501 62.04708132 16.0546875 64.57421875 C13.07049657 87.11996847 13.07049657 87.11996847 7.50390625 91.65625 C4.20447547 93.58149239 0.78143828 94.68728522 -2.93261719 95.52929688 C-6.09752193 96.24988454 -9.11835738 97.38881801 -12.1875 98.4375 C-27.83229718 102.91604913 -45.12215065 103.21119629 -59.7265625 95.57421875 C-69.04454622 90.25554663 -74.80955213 84.38804978 -80 75 C-80.43957031 74.21238281 -80.87914062 73.42476563 -81.33203125 72.61328125 C-86.34690305 61.60891593 -85.97452741 45.95125006 -81.875 34.6875 C-79.43737331 29.42085304 -76.51694013 24.61028939 -73 20 C-72.37738281 19.11441406 -72.37738281 19.11441406 -71.7421875 18.2109375 C-65.41875225 9.9185284 -54.77448648 3.3483535 -45 0 C-44.19304687 -0.29648437 -43.38609375 -0.59296875 -42.5546875 -0.8984375 C-29.61471861 -4.9168324 -12.64417219 -5.04551102 0 0 Z " fill="#FFFBFB" transform="translate(435,22)"/>
<path d="M0 0 C12.87 0 25.74 0 39 0 C37.52605667 4.42182998 36.14614984 7.87514843 33.98046875 11.90234375 C33.3769458 13.02809814 32.77342285 14.15385254 32.15161133 15.3137207 C31.49713514 16.52177046 30.84242567 17.72969386 30.1875 18.9375 C29.50985793 20.19547486 28.8323697 21.45353261 28.1550293 22.71166992 C23.4560573 31.41699991 18.61319406 40.03515692 13.70581055 48.62475586 C9.44890177 56.11203386 5.46162163 63.71998278 1.51879883 71.3762207 C-2.5046633 79.14910315 -6.7847852 86.75507883 -11.13134766 94.35083008 C-15.5503188 102.11089363 -19.71819329 109.98474082 -23.77929688 117.9375 C-24.68996831 119.71207515 -25.62255038 121.47558054 -26.5769043 123.22705078 C-28.08375183 126.04208307 -28.08375183 126.04208307 -29.27661133 129.31591797 C-30.85432324 132.91114059 -32.13572259 135.29806916 -35 138 C-41.04029052 139.49239298 -46.77204093 139.13982324 -52.9375 138.75 C-54.59160365 138.68975066 -56.24591759 138.63500739 -57.90039062 138.5859375 C-61.93881325 138.45420348 -65.96709002 138.24759306 -70 138 C-64.67557317 126.58868714 -59.18754917 115.26589047 -53.5625 104 C-53.26238007 103.39726257 -52.96226013 102.79452515 -52.65304565 102.17352295 C-48.96445713 94.77120471 -45.17991432 87.42744318 -41.3046875 80.12109375 C-37.41120951 72.76895459 -33.646116 65.35911583 -29.94140625 57.91015625 C-29.42069046 56.86322601 -28.89997467 55.81629578 -28.36347961 54.73764038 C-26.22629788 50.43582804 -24.09201552 46.13259458 -21.96166992 41.82739258 C-14.96034333 27.68876011 -7.69962847 13.77257487 0 0 Z " fill="#D30000" transform="translate(670,0)"/>
<path d="M0 0 C11.22 0 22.44 0 34 0 C34 5.1148467 33.80229832 8.8587164 32.82250977 13.72973633 C32.56546768 15.0241011 32.3084256 16.31846588 32.04359436 17.65205383 C31.75976123 19.04542642 31.47569301 20.43875114 31.19140625 21.83203125 C30.90183284 23.27444994 30.61277336 24.71697188 30.32420349 26.15959167 C29.7205184 29.17031577 29.11239323 32.18009529 28.50073242 35.18920898 C27.71620131 39.0493472 26.94017774 42.91113312 26.16709995 46.7735796 C25.5715696 49.74653771 24.97295054 52.71886661 24.37324333 55.69098473 C24.08593747 57.11544603 23.79927933 58.54003813 23.51327705 59.96476173 C23.11409006 61.94951428 22.71059318 63.93339853 22.30688477 65.91723633 C22.07816177 67.04639969 21.84943878 68.17556305 21.61378479 69.33894348 C21 72 21 72 20 74 C33.86 74 47.72 74 62 74 C61 85 61 85 57 102 C31.59 102 6.18 102 -20 102 C-18.82902853 94.38868545 -17.66442745 86.88041638 -16.12060547 79.35424805 C-15.94474915 78.48428192 -15.76889282 77.6143158 -15.58770752 76.71798706 C-15.01707104 73.89864014 -14.44218256 71.08017966 -13.8671875 68.26171875 C-13.46621575 66.28495074 -13.06551436 64.30812788 -12.66506958 62.33125305 C-11.61891847 57.17040073 -10.5691366 52.01029371 -9.51855469 46.8503418 C-8.44373724 41.56799735 -7.3724135 36.2849445 -6.30078125 31.00195312 C-4.20390796 20.66727815 -2.10286904 10.33345665 0 0 Z " fill="#FFFCFC" transform="translate(162,20)"/>
<path d="M0 0 C9.57 0 19.14 0 29 0 C23.66928236 11.40960617 18.18788774 22.73343143 12.5625 34 C12.1123201 34.90410614 12.1123201 34.90410614 11.65304565 35.82647705 C7.96445713 43.22879529 4.17991432 50.57255682 0.3046875 57.87890625 C-3.58879049 65.23104541 -7.353884 72.64088417 -11.05859375 80.08984375 C-11.57930954 81.13677399 -12.10002533 82.18370422 -12.63652039 83.26235962 C-14.77370212 87.56417196 -16.90798448 91.86740542 -19.03833008 96.17260742 C-26.03965667 110.31123989 -33.30037153 124.22742513 -41 138 C-51.89 138 -62.78 138 -74 138 C-72.57090111 133.71270332 -71.30909156 130.4413416 -69.19921875 126.5703125 C-68.64089355 125.5400293 -68.08256836 124.50974609 -67.50732422 123.44824219 C-66.90678223 122.35157227 -66.30624023 121.25490234 -65.6875 120.125 C-64.73646204 118.37426466 -63.78542666 116.62352791 -62.83459473 114.87268066 C-61.85964703 113.07925231 -60.88249721 111.2870398 -59.90478516 109.49511719 C-57.5866041 105.24145403 -55.28288655 100.98007536 -52.97973633 96.71826172 C-47.84944826 87.22882884 -42.68928958 77.75579107 -37.51904297 68.28808594 C-33.83174909 61.53308941 -30.16277221 54.76831983 -26.5 48 C-8.12813536 14.06792658 -8.12813536 14.06792658 0 0 Z " fill="#D30000" transform="translate(74,0)"/>
<path d="M0 0 C4.77187311 2.97057002 9.07158945 6.26440243 10.484375 11.90625 C11.53106277 21.31637559 11.42731936 30.04719259 5.484375 37.90625 C0.54651511 43.4070963 -5.4167858 46.88485631 -12.890625 47.46875 C-18.53821994 47.23744918 -22.4567431 44.69820349 -26.515625 40.90625 C-31.16068267 35.41663639 -32.26316648 29.99854231 -31.9375 22.90625 C-30.74760249 14.44475659 -27.4948022 8.76428796 -20.74609375 3.53515625 C-14.45970093 -1.1366262 -7.56893934 -3.29084319 0 0 Z " fill="#FF0202" transform="translate(525.515625,48.09375)"/>
<path d="M0 0 C4.77187311 2.97057002 9.07158945 6.26440243 10.484375 11.90625 C11.53106277 21.31637559 11.42731936 30.04719259 5.484375 37.90625 C0.54651511 43.4070963 -5.4167858 46.88485631 -12.890625 47.46875 C-18.53821994 47.23744918 -22.4567431 44.69820349 -26.515625 40.90625 C-31.16068267 35.41663639 -32.26316648 29.99854231 -31.9375 22.90625 C-30.74760249 14.44475659 -27.4948022 8.76428796 -20.74609375 3.53515625 C-14.45970093 -1.1366262 -7.56893934 -3.29084319 0 0 Z " fill="#FF0202" transform="translate(299.515625,48.09375)"/>
</svg>
